<?xml version="1.0" encoding="UTF-8" standalone="no"?>
<!-- Created with Inkscape (http://www.inkscape.org/) -->

<svg
   xmlns:dc="http://purl.org/dc/elements/1.1/"
   xmlns:cc="http://creativecommons.org/ns#"
   xmlns:rdf="http://www.w3.org/1999/02/22-rdf-syntax-ns#"
   xmlns:svg="http://www.w3.org/2000/svg"
   xmlns="http://www.w3.org/2000/svg"
   xmlns:sodipodi="http://sodipodi.sourceforge.net/DTD/sodipodi-0.dtd"
   xmlns:inkscape="http://www.inkscape.org/namespaces/inkscape"
   width="70.922928mm"
   height="21.166641mm"
   viewBox="0 0 70.922928 21.166641"
   version="1.1"
   id="svg8"
   inkscape:version="0.92.1 r15371"
   sodipodi:docname="banner_logo.svg">
  <defs
     id="defs2" />
  <sodipodi:namedview
     id="base"
     pagecolor="#ffffff"
     bordercolor="#666666"
     borderopacity="1.0"
     inkscape:pageopacity="0.0"
     inkscape:pageshadow="2"
     inkscape:zoom="2.6579982"
     inkscape:cx="124.1916"
     inkscape:cy="-13.979561"
     inkscape:document-units="mm"
     inkscape:current-layer="layer2"
     showgrid="false"
     inkscape:window-width="1680"
     inkscape:window-height="988"
     inkscape:window-x="-8"
     inkscape:window-y="-8"
     inkscape:window-maximized="1"
     showguides="true"
     fit-margin-top="0"
     fit-margin-left="0"
     fit-margin-right="0"
     fit-margin-bottom="0" />
  <metadata
     id="metadata5">
    <rdf:RDF>
      <cc:Work
         rdf:about="">
        <dc:format>image/svg+xml</dc:format>
        <dc:type
           rdf:resource="http://purl.org/dc/dcmitype/StillImage" />
        <dc:title></dc:title>
      </cc:Work>
    </rdf:RDF>
  </metadata>
  <g
     inkscape:label="Layer 1"
     inkscape:groupmode="layer"
     id="layer1"
     transform="translate(-11.673949,-54.723918)" />
  <g
     inkscape:groupmode="layer"
     id="layer2"
     inkscape:label="logo"
     transform="translate(-11.673949,-54.723918)">
    <g
       id="g4532">
      <g
         inkscape:export-ydpi="96"
         inkscape:export-xdpi="96"
         id="g5923">
        <g
           id="g5881"
           transform="matrix(1.0002058,0,0,0.95043694,-0.01564367,3.2136408)">
          <rect
             y="54.721745"
             x="12.212514"
             height="21.174345"
             width="69.857681"
             id="rect4485"
             style="fill:#069edb;fill-opacity:1;stroke:#069edb;stroke-width:1.05065382;stroke-miterlimit:4;stroke-dasharray:none;stroke-opacity:1" />
          <path
             inkscape:connector-curvature="0"
             id="path5628"
             d="M 64.233492,75.211905 C 59.025429,71.08184 53.470681,65.284902 49.170198,59.491848 47.903267,57.785203 46.108372,55.17351 45.821254,54.618908 l -0.195205,-0.377059 h 18.4579 18.457901 v 11.112499 11.112501 h -8.362929 -8.36293 z"
             style="fill:#0082b5;fill-opacity:1;stroke:none;stroke-width:0.68847293;stroke-miterlimit:4;stroke-dasharray:none;stroke-opacity:1" />
        </g>
        <g
           id="g5900">
          <polygon
             style="fill:#ffffff"
             transform="matrix(0.146114,0,0,0.146114,-10.761801,21.820132)"
             id="polygon5323"
             points="338.922,290.334 338.922,304.446 320.992,304.446 320.992,313.771 342.898,313.771 342.898,327.829 306.547,327.829 306.547,267.42 342.898,267.42 342.898,281.532 320.992,281.532 320.992,290.334 " />
          <path
             style="fill:#ffffff;stroke-width:0.14611401"
             inkscape:connector-curvature="0"
             id="path5325"
             d="m 31.090801,64.295984 c -0.07949,-0.545152 -0.246787,-0.943459 -0.433813,-1.122448 -0.246786,-0.183227 -0.517535,-0.295004 -0.73656,-0.295004 -0.406343,0 -0.732616,0.254969 -0.899624,0.693018 -0.215226,0.509354 -0.298803,1.122594 -0.298803,1.847173 0,1.561229 0.406051,2.361057 1.226481,2.361057 0.624929,0 1.034925,-0.545444 1.142319,-1.524992 h 2.046765 c -0.08387,1.086796 -0.382088,1.990657 -0.899624,2.647439 -0.546028,0.653276 -1.310204,0.971805 -2.178121,0.971805 -0.708653,0 -1.337674,-0.179136 -1.85521,-0.50161 -0.541352,-0.362655 -0.923733,-0.872008 -1.194482,-1.556698 -0.27484,-0.653276 -0.43805,-1.525431 -0.43805,-2.397147 0,-1.0152 0.16321,-1.92286 0.461867,-2.647585 0.33051,-0.688928 0.768705,-1.230134 1.250297,-1.56079 0.493573,-0.286676 1.039163,-0.469757 1.529229,-0.469757 1.142173,0.03594 1.98642,0.433813 2.44814,1.050706 0.465666,0.689074 0.768706,1.525138 0.820138,2.50454 h -1.990949 z" />
          <rect
             style="fill:#ffffff;stroke-width:0.14611401"
             id="rect5327"
             height="8.8185644"
             width="2.1062334"
             y="60.897957"
             x="23.645414" />
          <polygon
             style="fill:#ffffff"
             transform="matrix(0.146114,0,0,0.146114,-10.761801,21.82415)"
             id="polygon5329"
             points="227.063,327.774 213.356,327.774 198.397,295.104 198.343,309.188 198.397,327.774 184.828,327.774 184.828,267.42 197.799,267.42 213.167,300.637 213.167,287.555 213.167,267.42 227.063,267.42 " />
          <rect
             style="fill:#000000;stroke-width:0.14611401"
             id="rect5331"
             height="1.9357183"
             width="1.9360105"
             y="64.339378"
             x="33.121494" />
          <rect
             style="fill:#000000;stroke-width:0.14611401"
             id="rect5333"
             height="1.9357183"
             width="1.9358643"
             y="64.339378"
             x="25.751358" />
          <rect
             style="fill:#000000;stroke-width:0.14611401"
             id="rect5335"
             height="1.9357183"
             width="1.9360105"
             y="64.339378"
             x="21.709553" />
          <rect
             style="fill:#ffffff;stroke-width:0.14611401"
             id="rect5341"
             height="1.9358643"
             width="1.9360105"
             y="64.33931"
             x="40.860989" />
          <g
             style="fill:#ffffff"
             transform="matrix(0.12091771,0,0,0.12091771,-1.499859,29.301148)"
             id="g5359">
            <path
               style="fill:#ffffff"
               inkscape:connector-curvature="0"
               id="path5343"
               d="M 413.429,308.355 H 393.33 l -5.695,13.311 h -5.694 l 21.652,-49.275 21.134,49.275 h -5.756 z m -2.071,-4.901 -7.857,-18.851 -8.04,18.851 z" />
            <path
               style="fill:#ffffff"
               inkscape:connector-curvature="0"
               id="path5345"
               d="m 462.505,278.485 v 6.481 c -4.426,-4.14 -9.168,-6.211 -14.223,-6.211 -5.197,0 -9.666,1.93 -13.399,5.792 -3.735,3.799 -5.603,8.4 -5.603,13.805 0,5.832 2.161,10.605 6.485,14.326 3.755,3.269 7.938,4.904 12.547,4.904 5.057,0 9.785,-2.05 14.192,-6.15 v 6.518 c -4.491,3.024 -9.208,4.535 -14.164,4.535 -6.677,0 -12.402,-2.375 -17.173,-7.125 -4.772,-4.75 -7.157,-10.435 -7.157,-17.054 0,-6.719 2.396,-12.474 7.188,-17.268 4.854,-4.791 10.657,-7.186 17.419,-7.186 4.831,0.002 9.462,1.546 13.888,4.633 z" />
            <path
               style="fill:#ffffff"
               inkscape:connector-curvature="0"
               id="path5347"
               d="m 484.888,279.548 v 42.118 h -5.27 v -42.118 h -11.391 v -4.902 h 28.079 v 4.902 z" />
            <path
               style="fill:#ffffff"
               inkscape:connector-curvature="0"
               id="path5349"
               d="m 508.64,274.646 v 47.021 h -5.266 v -47.021 z" />
            <path
               style="fill:#ffffff"
               inkscape:connector-curvature="0"
               id="path5351"
               d="m 517.296,321.666 7.797,-49.701 18.059,39.74 18.455,-39.74 7.277,49.701 h -5.358 l -4.386,-32.708 -16.047,34.624 -15.807,-34.654 -4.629,32.738 z" />
            <path
               style="fill:#ffffff"
               inkscape:connector-curvature="0"
               id="path5353"
               d="m 583.807,274.646 v 47.021 h -5.267 v -47.021 z" />
            <path
               style="fill:#ffffff"
               inkscape:connector-curvature="0"
               id="path5355"
               d="m 600.254,316.761 h 25.001 v 4.905 h -33.71 l 25.642,-42.118 h -22.354 v -4.902 h 31.093 z" />
            <path
               style="fill:#ffffff"
               inkscape:connector-curvature="0"
               id="path5357"
               d="m 657.062,279.548 h -19.098 v 13.947 h 18.578 v 4.902 h -18.578 v 18.363 h 19.098 v 4.905 h -24.363 v -47.021 h 24.363 z" />
          </g>
        </g>
      </g>
    </g>
  </g>
</svg>
